<svg width="3659" height="3733" viewBox="0 0 3659 3733" fill="none" xmlns="http://www.w3.org/2000/svg">
<g clip-path="url(#clip0_1849_6571)">
<path d="M2449.17 3489.5C1386.5 3861.5 -560.335 4085.9 153.665 2007.5C370.607 1376 1142.17 1067 1811.67 1067C2481.17 1067 3557.67 1673.5 3653.67 2311C3730.47 2821 2970 3282.33 2449.17 3489.5Z" fill="#F4F768"/>
<g clip-path="url(#clip1_1849_6571)">
<path d="M2807 2975C2783 2869.8 2797 2726.83 2807 2668.5V2601L3002 2486.5H3080L3117 2644.5L3191 3106.5H2877.5C2864 3106.5 2831 3080.2 2807 2975Z" fill="#5A92E5"/>
<path d="M877 3169.5L934.5 3012L950 2869.5L683 2748L546.5 3069.5L877 3169.5Z" fill="#9DB4EE"/>
<path d="M1335.5 1964.5C1345.5 1937.7 1412.67 1906 1445 1893.5L2044 2470.5L2142.5 1987.5L2121 1936.5L2194 1873C2203.17 1886.33 2222.8 1912 2228 1908C2234.5 1903 2336 1890.5 2369.5 1908C2396.3 1922 2409 1951.5 2412 1964.5C2469 1916 2526 1937 2567.5 1913C2600.7 1893.8 2623.33 1939.33 2630.5 1964.5C2688.1 1964.5 2732.5 1979.83 2747.5 1987.5L3052.5 2272V2490.5C2994.9 2566.9 2858.83 2632 2798 2655C2798 2927 2747.5 2879.5 2747.5 2960.5C2747.5 3025.3 2781.17 3069.5 2798 3083.5H996L969 2769C954.167 2893.67 926.9 3113.7 936.5 2996.5C946.1 2879.3 806.5 2822 735.5 2808V2218L899.5 2129C985 2121.83 1155 2103.8 1151 2089C1146 2070.5 1221 2031.5 1234.5 2013C1248 1994.5 1313 2024 1323 2013C1333 2002 1323 1998 1335.5 1964.5Z" fill="#FF2626"/>
<path d="M1524 1802C1568.8 1714.4 1581.33 1528.17 1582 1446L1609 1410.5L1638 1446L1665 1307.5C1810.33 1482.67 2110 1867.5 2146 2005.5C2182 2143.5 2094 2386.67 2045.5 2491C1567 2363.5 1432.5 1902.5 1452.5 1893.5C1472.5 1884.5 1468 1911.5 1524 1802Z" fill="#3343D4"/>
<path d="M1118 2746.5C1161.2 2635.3 1085 2490.83 1041.5 2432.5C1024.5 2416.5 1000.7 2385.1 1041.5 2387.5C1092.5 2390.5 1118 2483.5 1171.5 2495C1225 2506.5 1219.5 2862.5 1251 2936.5C1276.2 2995.7 1323.5 3062.83 1344 3089H990.5V3029.5C1015 2981.5 1074.8 2857.7 1118 2746.5Z" fill="#262626" fill-opacity="0.5"/>
<path d="M1598.5 2166.5C1673.05 2256.04 1869.67 2091.67 1942 2030C1907.33 2020.67 1770.7 1953.7 1751.5 1916.5C1727.5 1870 1665.5 1788.5 1615.5 1744C1565.5 1699.5 1610 1909.5 1641.5 1955.5C1673 2001.5 1587.5 2072.5 1563.5 2089C1539.5 2105.5 1516.5 1968.5 1496.5 1976C1464.52 1987.99 1511.5 2062 1598.5 2166.5Z" fill="#C88E68" fill-opacity="0.51"/>
<path d="M2730.56 2534.06C2713.44 2499.42 2544.78 2166.21 2290 1955C2334 1925 2347.5 1955 2394.5 1955C2432.1 1955 2581.83 2134.33 2652 2224C2716.7 2335.68 2729.03 2469.71 2730.56 2534.06C2731.52 2536 2732 2537 2732 2537C2731.46 2543.37 2731.04 2548.81 2730.72 2553.37C2730.52 2576.62 2728.85 2580.31 2730.72 2553.37C2730.77 2547.95 2730.74 2541.47 2730.56 2534.06Z" fill="#3E3B3B" fill-opacity="0.5"/>
<path d="M2243 2250.5C2272.33 2360.83 2301.1 2593.8 2181.5 2643C2142 2651.5 2196 2332.5 2243 2250.5Z" fill="#3E3B3B" fill-opacity="0.5"/>
<path d="M1974.5 2693.5C1916.5 2741.5 1722.33 2499.17 1632.5 2372C1662.5 2354 1805.67 2474.5 1873.5 2537C1917.67 2572.33 1999.7 2653.1 1974.5 2693.5Z" fill="#3E3B3B" fill-opacity="0.5"/>
<path d="M1724 2568.5C1694 2544.9 1522.17 2299.33 1440 2179.5C1417.5 2179.5 1410 2189 1412 2224C1414 2259 1486.5 2372 1528 2467.5C1569.5 2563 1707 2693.5 1748 2751.5C1789 2809.5 1746.5 2813 1800.5 2895C1877 2964 1974.5 2942 1974.5 2921.5C1974.5 2901 1873.5 2850.5 1832.5 2813C1791.5 2775.5 1761.5 2598 1724 2568.5Z" fill="#3E3B3B" fill-opacity="0.5"/>
<path d="M1608 1641C1600.8 1626.2 1605 1468.17 1608 1391C1610.67 1317.5 1629.1 1146.3 1681.5 1049.5C1747 928.5 1831.5 868 1877.5 818.5C1923.5 769 1949 777 2137.5 793C2318 766 2424 1000 2433.5 1003.5C2441.1 1006.3 2430.33 1178.67 2424 1264.5C2411.17 1336 2410 1445.85 2375.5 1481.5C2345.5 1512.5 2242 1804 2216.5 1848.5C2191 1893 2195 2074 1940.5 2003C1686 1932 1617 1659.5 1608 1641Z" fill="#5E82E1"/>
<path d="M1465.25 1221.27C1456.96 1166.72 1489.51 1144.41 1506.82 1140.08C1499.4 1136.7 1497.18 1132.05 1547.74 1140.41C1610.95 1150.86 1592.02 1196.94 1610.46 1210.51C1628.9 1224.08 1627.11 1446.77 1590.04 1442.99C1552.97 1439.21 1504.72 1400.05 1482.81 1343.7C1460.9 1287.35 1475.61 1289.46 1465.25 1221.27Z" fill="#566CE3"/>
<path d="M2323.5 1203.48C2370.3 1193.88 2422.33 1214.48 2442.5 1225.98C2445.67 1236.81 2450.1 1260.18 2442.5 1266.98C2433 1275.48 2414 1274.48 2375.5 1271.48C2337 1268.48 2304.5 1252.48 2286.5 1248.98C2279 1253.15 2262.2 1262.2 2255 1265C2246 1268.5 2234.5 1275 2229 1271.48C2223.5 1267.96 2230.5 1261 2234.5 1253.5C2237.7 1247.5 2243.94 1242.67 2247 1242.5C2247.94 1239.33 2249.5 1236.6 2251 1234.25L2255 1225.98C2264.5 1220.98 2265.5 1221.48 2276 1210.48C2284.4 1201.68 2294.5 1202.14 2298.5 1203.48L2304.5 1221.48C2313.5 1218.5 2319.33 1207.98 2323.5 1203.48Z" fill="#231F19"/>
<path d="M1924 1582C1932 1576.17 1957.1 1550.8 1993.5 1496C2004.73 1479.5 2033 1470.5 2056 1459.5C2079 1448.5 2108 1493 2104.5 1505.5C2101 1518 2045 1519 2033 1520C2021 1521 2025.5 1554 2024.5 1560C2023.5 1566 2003 1571 1993.5 1582C1984 1593 1941.5 1602.5 1924 1596.5C1910 1591.7 1918.17 1584.83 1924 1582Z" fill="#965047" fill-opacity="0.5"/>
<path d="M2012 1291.5C2028.8 1293.5 2038 1277.33 2040.5 1269C1976.5 1216.6 1923.5 1234.83 1905 1250.5C1936.6 1295.3 1989.5 1296.5 2012 1291.5Z" fill="#F6F5F5"/>
<ellipse cx="1964.5" cy="1253.5" rx="35.5" ry="32.5" fill="#211B16"/>
<path d="M2274.5 1339C2266.5 1336.5 2260 1329.5 2260 1323C2258.5 1307.5 2276.5 1279 2315.94 1294.67C2354.03 1309.81 2360 1326 2360 1334.5C2335 1348 2294.55 1345.27 2274.5 1339Z" fill="white"/>
<path d="M1894 1254C1955 1217 2034 1260.5 2043.5 1260.5C2048.5 1239 1974 1227.5 1949.5 1227.5C1920.5 1227.5 1878.5 1249 1882 1254C1884.8 1258 1891.17 1255.67 1894 1254Z" fill="#251D14"/>
<path d="M2756.5 2389C2757.33 2379.5 2753.3 2300.9 2730.5 2062.5C2730.5 2048.67 2735.7 2032.5 2756.5 2078.5C2782.5 2136 2795.5 2219.5 2798 2277C2800 2323 2771.17 2370.83 2756.5 2389Z" fill="url(#paint0_linear_1849_6571)" fill-opacity="0.51"/>
<path d="M2745 2438L2798 2332C2813 2293.5 2820.5 2202.5 2825.5 2206C2830.5 2209.5 2837 2218 2839 2239C2841 2260 2830 2309 2815 2352C2803 2386.4 2769.33 2446.33 2754 2472L2745 2438Z" fill="url(#paint1_linear_1849_6571)" fill-opacity="0.51"/>
<path d="M2771 2523.5L2761.5 2494.5C2785 2481.5 2849.5 2364 2865 2322.5C2880.5 2281 2882 2212.5 2889 2219C2896 2225.5 2891.5 2256.5 2889 2292C2886.5 2327.5 2856.5 2379.5 2839 2412C2825 2438 2787.83 2497.17 2771 2523.5Z" fill="url(#paint2_linear_1849_6571)" fill-opacity="0.51"/>
<path d="M2163 1703.5C2153.4 1695.5 2167 1652.5 2175 1632C2203 1622.5 2205.5 1618 2224 1606C2242.5 1594 2252.5 1692.5 2255.5 1726.5C2257.62 1750.48 2247.54 1772.97 2243.35 1781.51C2243.2 1782.58 2242.92 1783.43 2242.5 1784C2240.88 1786.21 2241.6 1785.08 2243.35 1781.51C2245.18 1768.56 2228.24 1722.08 2213 1711C2196.5 1699 2175 1713.5 2163 1703.5Z" fill="white" fill-opacity="0.5"/>
<path d="M2094.94 1694.21C2092.45 1686.51 2090.38 1662.61 2101.94 1628.64C2110.77 1620.52 2113.42 1691.96 2127 1690.76C2140.58 1689.56 2151.12 1622.8 2154.49 1628.64C2159.74 1637.78 2167.62 1685.07 2143.1 1705.49C2123.49 1721.83 2102.82 1704.78 2094.94 1694.21Z" fill="#B7BDF2"/>
<ellipse cx="2304.5" cy="1313.5" rx="30.5" ry="27.5" fill="#211B16"/>
<path d="M1543.73 1358.08C1534.73 1351.41 1514.03 1331.78 1503.23 1306.58C1497.23 1282.08 1503.23 1284.08 1503.23 1261.58C1503.23 1239.08 1522.23 1177.08 1533.23 1174.08C1544.23 1171.08 1550.73 1179.08 1557.73 1174.08C1564.73 1169.08 1559.73 1158.08 1553.73 1152.58C1547.73 1147.08 1522.23 1151.08 1513.73 1158.08C1505.23 1165.08 1494.73 1184.08 1485.23 1216.58C1475.73 1249.08 1489.73 1303.08 1494.73 1318.58C1499.73 1334.08 1523.23 1369.08 1540.73 1366.58C1554.73 1364.58 1548.56 1360.08 1543.73 1358.08Z" fill="#2D2D2D" fill-opacity="0.49"/>
<path d="M2308 1294.75C2273.2 1287.95 2252.83 1307.25 2247 1317.75C2247 1313.75 2248.3 1303.55 2253.5 1294.75C2260 1283.75 2271.5 1278.75 2329 1284.25C2374.92 1288.64 2391.11 1335.59 2393.49 1358.64C2393.49 1358.67 2393.5 1358.71 2393.5 1358.75C2393.5 1358.71 2393.49 1358.67 2393.49 1358.64C2392.22 1347.45 2351.35 1303.22 2308 1294.75Z" fill="#442E23"/>
<path d="M2136.5 1870.5C2163.7 1868.9 2179.5 1826.5 2184 1805.5C2223 1779 2184 1913 2158.5 1959C2133 2005 2052.5 1983 2032 1980C2011.5 1977 1944.5 1936.5 1940.5 1918.5C1936.5 1900.5 1949 1887.5 1967 1864C1985 1840.5 2102.5 1872.5 2136.5 1870.5Z" fill="white" fill-opacity="0.5"/>
<path d="M2107.68 1142.5C2109.59 1137.68 2117.51 1134.45 2127 1131C2130.65 1139.17 2127.49 1162.08 2123.84 1170.25C2120.19 1178.42 2116.02 1172.13 2107.68 1162.08C2101.01 1154.04 2104.9 1146.27 2107.68 1142.5Z" fill="#131313" fill-opacity="0.5"/>
<path d="M2034.5 1251C2058.1 1259.4 2071.33 1286.83 2075 1299.5C2078.67 1285.17 2080.9 1251.6 2060.5 1232C2035 1207.5 1912 1218 1881.5 1226C1851 1234 1824.5 1267.5 1881.5 1247.5C1938.5 1227.5 2005 1240.5 2034.5 1251Z" fill="#442E23"/>
<path d="M2214.5 1528.5C2210.11 1487.5 2204.89 1413.78 2208.5 1367.5C2208.5 1358.78 2229 1351.5 2224.5 1378.5C2218.56 1414.12 2242 1555.88 2242 1573.28C2242 1590.68 2218.86 1569.2 2214.5 1528.5Z" fill="#FAFAFA" fill-opacity="0.75"/>
<path d="M1694 1338.5C1657.6 1325.3 1668.17 1354.67 1678 1371C1707.5 1397 1723 1451 1721.5 1483C1720 1515 1655.5 1440.5 1633 1501.5C1610.5 1562.5 1652 1706.5 1702.5 1734C1753 1761.5 1810.5 1810 1852.5 1768C1894.5 1726 1883 1606.5 1870 1527.5C1857 1448.5 1739.5 1355 1694 1338.5Z" fill="#A96D5D" fill-opacity="0.49"/>
<path d="M1884.5 1176.5C1859 1160 1836.33 1163.5 1831.5 1164.5L1884.5 1176.5Z" fill="#231F19"/>
<path d="M1942.5 1125C1986.1 1115 2092 1151.5 2139.5 1171C2154.7 1178.6 2154.17 1196.83 2152 1205C2159.2 1198.6 2165.33 1183.33 2167.5 1176.5C2171.9 1178.5 2168 1198.33 2165.5 1208C2169.9 1208 2176 1188.67 2178.5 1179C2182.5 1183.5 2172 1203 2174.5 1202.5C2176.5 1202.1 2183.33 1190 2186.5 1184C2182.5 1194.67 2175.8 1215.4 2181 1213C2186.2 1210.6 2196.83 1199 2201.5 1193.5C2201.1 1202.3 2183.33 1219.5 2174.5 1227C2178.9 1227.8 2197 1214.67 2205.5 1208C2201.9 1221.2 2183.33 1231.83 2174.5 1235.5C2184.1 1241.5 2199.17 1227.67 2205.5 1220C2201.9 1238 2183.33 1243.83 2174.5 1244.5C2178.5 1248.5 2199.83 1242.83 2210 1239.5C2194.17 1249.33 2157.9 1263.1 2139.5 1239.5C2121.1 1215.9 1944.5 1177.33 1858.5 1161C1868.33 1153.17 1898.9 1135 1942.5 1125Z" fill="#231F19"/>
<path d="M1863.5 1179C1838 1162.5 1816.83 1167.5 1812 1168.5L1863.5 1179Z" fill="#231F19"/>
<path d="M1845.5 1180C1809.5 1165.5 1804.83 1172.5 1800 1173.5L1845.5 1180Z" fill="#231F19"/>
<path d="M2055.8 1792.65C2028.65 1788.67 1940 1738 1945.5 1725.45C1950.3 1714.5 2004.64 1721.96 2036.05 1725.45C2067.45 1728.93 2091.77 1747.85 2110.51 1746.85C2129.25 1745.86 2149.51 1739.88 2169.77 1733.41C2190.03 1726.94 2208.99 1754.54 2209.79 1763.28C2211 1776.5 2191.55 1800.62 2173.82 1805.1C2156.1 1809.58 2139.89 1796.13 2108.48 1792.65C2077.08 1789.17 2089.74 1797.63 2055.8 1792.65Z" fill="#FFA295"/>
<path d="M2162 1748C2132.4 1759.6 2049.67 1743.17 2012 1733.5C2005 1731.75 1993 1738.5 2019 1748C2045 1757.5 2151 1764 2162 1760.5C2173 1757 2199 1733.5 2162 1748Z" fill="white" fill-opacity="0.3"/>
<path d="M2281.5 1538C2251.1 1514 2232.5 1438 2227 1403C2233 1386.5 2254 1451 2275 1458C2296 1465 2308.5 1461 2308.5 1422.5C2308.5 1405.93 2380 1379 2386 1378.5C2392 1378 2374 1478.5 2361.5 1519.5C2351.5 1552.3 2322 1602.83 2308.5 1624C2309.5 1605 2319.5 1568 2281.5 1538Z" fill="white" fill-opacity="0.49"/>
<path d="M2085.5 1701C2074.7 1694.6 1940.5 1701 1940.5 1709C1940.5 1712.75 1948 1718.5 1977 1716C2003 1721 2024.48 1718.87 2041.5 1721C2073.5 1725 2065.05 1743.5 2108 1743.5C2151 1743.5 2143.88 1728.5 2164 1728.5C2188 1728.5 2230.5 1746 2227.5 1737C2224.5 1728 2196.5 1723.5 2172.5 1713C2148.5 1702.5 2136 1733 2121 1728.5C2106 1724 2099 1709 2085.5 1701Z" fill="#D77F71"/>
<path d="M1267.5 2554.5C1244.7 2468.5 1258 2177 1267.5 2042C1250.67 2027.83 1217 2016.5 1217 2084.5C1217 2169.5 1217 2396 1185.5 2398.5C1154 2401 1101 2330.5 1072.5 2297C1044 2263.5 1038.5 2203.5 996.001 2200.5C953.501 2197.5 996.001 2311 1038.5 2362C1081 2413 1202.5 2413 1217 2642C1231.5 2871 1307.5 3089 1344 3066.5C1380.5 3044 1384 2990 1386.5 2919.5C1389 2849 1296 2662 1267.5 2554.5Z" fill="#FDFDFD" fill-opacity="0.5"/>
<path d="M1935.8 1266.63C1932.54 1264.14 1934.44 1250.8 1935.8 1244.43C1940.78 1243.1 1950.11 1241.5 1947.57 1245.76C1945.04 1250.03 1945.31 1261.45 1945.76 1266.63C1943.8 1267.66 1939.06 1269.11 1935.8 1266.63Z" fill="#C4C4C4" fill-opacity="0.5"/>
<path d="M2183.34 1549.99C2178.43 1537.69 2173.73 1363.09 2172 1277.33C2172 1259.29 2192.33 1257.95 2201.78 1283.34C2211.23 1308.74 2204.62 1359.53 2206.98 1423.68C2209.34 1487.84 2217.85 1553.33 2230.14 1571.37C2235.75 1579.61 2227.78 1588.08 2217.85 1593.43C2207.93 1598.77 2189.49 1565.36 2183.34 1549.99Z" fill="#E4947D" fill-opacity="0.5"/>
<path d="M2279.16 1323.96C2277.06 1322.07 2278.28 1311.92 2279.16 1307.09C2282.36 1306.08 2288.35 1304.86 2286.72 1308.1C2285.09 1311.34 2285.27 1320.02 2285.56 1323.96C2284.3 1324.74 2281.25 1325.85 2279.16 1323.96Z" fill="#C4C4C4" fill-opacity="0.5"/>
<path d="M2241 1214C2232.6 1191.2 2244.5 1141.83 2251.5 1120C2260.5 1129 2259.9 1139.4 2251.5 1155C2241 1174.5 2254.5 1176.5 2251.5 1198.5C2249.1 1216.1 2249 1216.17 2241 1214Z" fill="#060606" fill-opacity="0.3"/>
<path d="M1584.5 368.5C1780.9 264.5 1819.33 429.166 1814 524.5L1801.5 519C1804.7 309.8 1658.17 331.5 1584.5 368.5Z" fill="#40FF8C"/>
<path d="M1584.5 1436C1584.5 1495.83 1578 1626.7 1564 1659.5C1546.5 1700.5 1439 1615.5 1453.5 1565.5C1453.5 1565.5 1549 1706 1552 1612C1553.24 1602.89 1458 1567.5 1466.5 1553.5C1466.5 1553.5 1504 1579.5 1555.5 1579.5C1573.5 1579.5 1568.09 1554.44 1567 1549C1561.5 1521.5 1512 1566.5 1504 1545C1496 1523.5 1439 1495.5 1450 1483C1461 1470.5 1425 1468 1412.5 1424C1400 1380 1422 1421 1424.5 1424C1427 1427 1474.5 1478 1480 1458.5C1485.5 1439 1514.5 1407.5 1504 1404.5C1493.5 1401.5 1470.5 1427 1466.5 1436C1462.5 1445 1457 1427 1458 1425.5C1459 1424 1482.5 1352 1474.5 1345C1466.5 1338 1411.5 1241 1443 1191.5C1404.83 1188.67 1342.3 1153.9 1397.5 1037.5C1383.67 1024.5 1350.3 1026.2 1327.5 1137C1294 1067.83 1273.2 925.9 1458 911.5C1472.5 907.166 1499.6 893 1492 871C1482.5 843.5 1358 850 1384 773C1407.61 703.069 1289.36 747.374 1274.94 773.702C1274.41 776.261 1274.11 778.71 1274 781C1273.08 778.842 1273.48 776.364 1274.94 773.702C1280.88 744.793 1315.24 701.933 1418.5 717L1212.5 587.5C1259.5 578 1372.8 564.7 1450 587.5C1450 587.5 1477.5 568 1443 544C1468.17 551 1518.3 569.5 1517.5 587.5C1516.5 610 1534.5 326 1476.5 275C1524.83 291.5 1613.8 368.4 1583 544C1625.33 504.166 1743 449.8 1875 551C1936.33 494.5 2054.7 367.6 2037.5 312C2069.5 335.833 2129 393.4 2111 433C2174.83 440 2284 421.5 2210 291.5C2205.83 282 2200.8 264.2 2214 269C2230.5 275 2333 312.5 2256 471.5H2286C2291.41 448.249 2299.88 404.598 2295.93 394.244C2292.32 392.263 2290.97 392 2293.5 392C2294.58 392 2295.38 392.797 2295.93 394.244C2308.03 400.887 2345.57 426.851 2347.5 527C2355.67 494.166 2370.3 424.1 2363.5 406.5C2355 384.5 2486 565 2415.5 650.5C2508.83 656.166 2694.9 689.5 2692.5 777.5C2678.83 765.166 2647.9 744.2 2633.5 759C2615.5 777.5 2816.5 852 2792.5 900C2752 869.5 2670.1 812.4 2666.5 828C2662.9 843.6 2665 854.5 2666.5 858C2732.83 868.166 2865.5 923.8 2865.5 1065C2861.67 1020 2820.1 927 2684.5 915C2740 965.833 2831.5 1102.3 2753.5 1241.5C2765 1171.67 2763.7 1018.8 2666.5 966C2721.5 1023.83 2794.3 1154.5 2645.5 1214.5C2687.5 1168.67 2746.3 1062.9 2645.5 1006.5C2658 1054.33 2665.3 1174.6 2594.5 1273C2576.5 1293.4 2464.5 1289 2418 1285C2423.67 1191.67 2446.1 1006.5 2432.5 1006.5C2415.5 1006.5 2399.5 957 2381.5 966C2363.5 975 2351 1056.5 2327 1044C2327 1044 2344.5 955.5 2319 966C2293.5 976.5 2287.5 1006.5 2241 1006.5C2194.5 1006.5 2172 811.5 2134.5 814.5C2097 817.5 1985 756 1887.5 828C1790 900 1865 987 1815.5 1026C1766 1065 1724 1078 1701.5 1112.5C1679 1147 1643 1367.5 1659.5 1387C1676 1406.5 1615 1397.5 1606 1376.5C1597 1355.5 1624.5 1199.5 1573 1157C1562.57 1148.39 1532.5 1127 1495.5 1145.5C1430.64 1177.93 1514.5 1458.5 1584.5 1436Z" fill="#40FF8C"/>
<path d="M1896.5 308C1769.3 330.8 1690.5 451.5 1667 509L1696 505.5C1690 443.5 1827.17 348 1896.5 308Z" fill="#40FF8C"/>
<path d="M1999 342C1896.6 350.4 1815.33 469.166 1787.5 527.5L1802 534C1831.2 436.4 1945.5 365.333 1999 342Z" fill="#40FF8C"/>
<path d="M2315.78 1335.05C2367.7 1313.9 2423.92 1252.78 2449.44 1206.66C2480.99 1180.26 2519.82 1140.43 2459.48 1226.29C2406.81 1301.23 2350.61 1323.19 2315.78 1335.05C2311.14 1336.94 2306.54 1338.51 2302 1339.72C2306.09 1338.29 2310.71 1336.78 2315.78 1335.05Z" fill="#40FF8C"/>
<path d="M2311.14 1323.8C2359.4 1289.64 2407.95 1196.58 2428 1149.5C2456.67 1120 2501.2 1083.9 2450 1175.5C2406.9 1252.61 2347.31 1301.59 2311.14 1323.8C2305.24 1327.98 2299.34 1331.28 2293.5 1333.5C2298.38 1331.21 2304.35 1327.98 2311.14 1323.8Z" fill="#40FF8C"/>
<path d="M2171.5 1597.87C2185.34 1598.59 2188.5 1581.5 2204.5 1591.5C2210.5 1597.87 2209.87 1614.13 2193.52 1620.48C2177.18 1626.82 2165.64 1623.19 2146.89 1620.48C2128.15 1617.76 2153.62 1608.24 2153.14 1603.25C2152.66 1598.27 2130.37 1594.38 2139 1591.5C2149.5 1588 2154.19 1596.96 2171.5 1597.87Z" fill="#7A443C" fill-opacity="0.5"/>
<path d="M2113 1582.5C2126.2 1582.5 2141.17 1597.83 2147 1605.5C2145.83 1607.17 2142.9 1610.4 2140.5 1610C2137.5 1609.5 2111 1595 2096.5 1592C2082 1589 2056 1596.5 2046.5 1595C2038.9 1593.8 2028 1577.83 2023.5 1570C2019.59 1564.53 2024.91 1547.49 2028.26 1539.09C2028.33 1538.89 2028.41 1538.69 2028.5 1538.5C2028.42 1538.69 2028.34 1538.89 2028.26 1539.09C2026.2 1544.85 2028.98 1556.65 2028.5 1561C2028 1565.5 2046 1589.5 2063.5 1586.5C2081 1583.5 2096.5 1582.5 2113 1582.5Z" fill="#363636" fill-opacity="0.5"/>
<path d="M2090 1297.51C2100 1282.71 2085.83 1266.68 2077.5 1260.51C2077.5 1245.51 2090 1247.51 2107.5 1260.51C2125 1273.51 2120 1311.5 2107.5 1327.5C2097.5 1340.3 2027.33 1358.83 1998.5 1369C2024 1348.5 2080 1312.31 2090 1297.51Z" fill="#5C4031" fill-opacity="0.49"/>
<path d="M2003 1307C2022.2 1302.2 2052 1305 2064.5 1307C2064.5 1318.5 2054.5 1314.5 2039 1319.5C2029.77 1322.48 2001.42 1318.37 1971.54 1310.28C1970.5 1310 1969.46 1309.71 1968.42 1309.42C1965.3 1308.55 1962.18 1307.64 1959.07 1306.69C1958.08 1306.39 1957.1 1306.08 1956.12 1305.78C1953 1304.8 1949.9 1303.79 1946.84 1302.74C1945.58 1302.31 1944.33 1301.87 1943.09 1301.43C1942.22 1301.12 1941.35 1300.81 1940.49 1300.5C1940.09 1300.35 1939.68 1300.2 1939.27 1300.05C1938.93 1299.93 1938.59 1299.8 1938.24 1299.68C1936.56 1299.07 1934.75 1298.46 1932.92 1297.84C1929.35 1296.62 1925.73 1295.4 1923 1294.27C1922.54 1294.08 1919.46 1292.19 1919 1292C1916.05 1290.75 1917.93 1291.5 1915 1290C1874 1269 1874 1255.5 1889 1268.5C1904 1281.5 1979 1313 2003 1307Z" fill="#26221B"/>
<path d="M1959.07 1306.69C1958.08 1306.39 1957.1 1306.08 1956.12 1305.78C1952.83 1308.66 1948.61 1314.52 1944 1325.5C1946.32 1321.2 1953.81 1312.49 1959.07 1306.69Z" fill="#26221B"/>
<path d="M1943.09 1301.43C1939.41 1304.21 1934.55 1310.45 1929 1323C1932.09 1318.21 1941 1308.71 1946.84 1302.74C1945.58 1302.31 1944.33 1301.87 1943.09 1301.43Z" fill="#26221B"/>
<path d="M1938.24 1299.68C1936.56 1299.07 1934.75 1298.46 1932.92 1297.84C1928.69 1300.53 1922.68 1305.91 1915.11 1315.86C1919.19 1310.56 1930.46 1303.81 1938.24 1299.68Z" fill="#26221B"/>
<path d="M1968.42 1309.42C1965.86 1312.41 1962.36 1318.11 1957.5 1328.5C1960.39 1323.36 1966.93 1315.5 1971.54 1310.28C1970.5 1310 1969.46 1309.71 1968.42 1309.42Z" fill="#26221B"/>
<path d="M2299.42 1350.16C2286.6 1347.31 2266.4 1346.97 2257.9 1347.16C2257.57 1351.74 2264.44 1350.63 2274.76 1353.38C2280.91 1355.02 2300.16 1354.76 2320.57 1352.99C2321.28 1352.93 2321.99 1352.87 2322.7 1352.8C2324.83 1352.61 2326.96 1352.4 2329.09 1352.17C2329.76 1352.1 2330.44 1352.03 2331.11 1351.95C2333.24 1351.72 2335.36 1351.46 2337.46 1351.2C2338.32 1351.09 2339.18 1350.97 2340.03 1350.86C2340.63 1350.78 2341.22 1350.7 2341.81 1350.61C2342.09 1350.57 2342.37 1350.53 2342.65 1350.49C2342.88 1350.46 2343.11 1350.43 2343.35 1350.39C2344.5 1350.24 2345.75 1350.08 2347 1349.92C2349.44 1349.61 2351.92 1349.3 2353.8 1348.98C2354.11 1348.93 2356.25 1348.33 2356.56 1348.27C2358.59 1347.92 2357.3 1348.13 2359.32 1347.67C2387.6 1341.31 2375.06 1337.46 2364.56 1341.91C2354.06 1346.36 2315.45 1353.72 2299.42 1350.16Z" fill="#26221B"/>
<path d="M2329.09 1352.17C2329.76 1352.1 2330.44 1352.03 2331.11 1351.95C2333.24 1353.26 2335.92 1355.8 2338.72 1360.4C2337.28 1358.57 2332.47 1354.74 2329.09 1352.17Z" fill="#26221B"/>
<path d="M2340.03 1350.86C2342.44 1352.14 2345.53 1354.87 2348.92 1360.13C2346.97 1358.08 2341.23 1353.86 2337.46 1351.2C2338.32 1351.09 2339.18 1350.97 2340.03 1350.86Z" fill="#26221B"/>
<path d="M2343.35 1350.39C2344.5 1350.24 2345.75 1350.08 2347 1349.92C2349.77 1351.2 2353.68 1353.63 2358.51 1357.97C2355.9 1355.66 2348.49 1352.42 2343.35 1350.39Z" fill="#26221B"/>
<path d="M2322.7 1352.8C2324.34 1354.12 2326.54 1356.56 2329.52 1360.94C2327.72 1358.75 2323.53 1355.3 2320.57 1352.99C2321.28 1352.93 2321.99 1352.87 2322.7 1352.8Z" fill="#26221B"/>
</g>
</g>
<defs>
<linearGradient id="paint0_linear_1849_6571" x1="2827.5" y1="1897.5" x2="2811.62" y2="2523.5" gradientUnits="userSpaceOnUse">
<stop stop-opacity="0"/>
<stop offset="1"/>
</linearGradient>
<linearGradient id="paint1_linear_1849_6571" x1="2827.5" y1="1897.5" x2="2811.62" y2="2523.5" gradientUnits="userSpaceOnUse">
<stop stop-opacity="0"/>
<stop offset="1"/>
</linearGradient>
<linearGradient id="paint2_linear_1849_6571" x1="2827.5" y1="1897.5" x2="2811.62" y2="2523.5" gradientUnits="userSpaceOnUse">
<stop stop-opacity="0"/>
<stop offset="1"/>
</linearGradient>
<clipPath id="clip0_1849_6571">
<rect width="3659" height="3733" fill="white"/>
</clipPath>
<clipPath id="clip1_1849_6571">
<path d="M736 0H3053V1697.8C3053 2465.59 2430.59 3088 1662.8 3088C1150.94 3088 736 2673.06 736 2161.2V0Z" fill="white"/>
</clipPath>
</defs>
</svg>
